<?xml version="1.0" encoding="UTF-8" standalone="no"?>
<!DOCTYPE svg PUBLIC "-//W3C//DTD SVG 20010904//EN"
              "http://www.w3.org/TR/2001/REC-SVG-20010904/DTD/svg10.dtd">

<svg xmlns="http://www.w3.org/2000/svg"
     width="22.4306in" height="40.9306in"
     viewBox="0 0 1615 2947">
  <path id="Unnamed #2"
        fill="none" stroke="black" stroke-width="1"
        d="M 1092.00,1044.67
           C 1127.66,1083.07 1155.50,1131.48 1193.00,1168.00
             1227.39,1201.49 1261.50,1219.00 1261.50,1219.00
             1261.50,1219.00 1309.89,1252.94 1386.00,1252.00
             1430.54,1251.45 1482.84,1240.93 1536.00,1197.00
             1577.47,1165.02 1607.92,1105.11 1613.50,1046.50
             1616.68,1013.12 1613.36,963.59 1600.67,916.67
             1587.72,868.83 1565.23,823.63 1551.00,794.00
             1507.00,725.00 1471.00,650.00 1471.00,650.00
             1471.00,650.00 1463.59,633.96 1460.00,620.00
             1455.26,601.58 1453.00,570.00 1453.00,570.00
             1453.00,570.00 1461.51,555.60 1465.00,530.00
             1467.01,515.23 1471.12,496.77 1466.00,469.33
             1461.25,443.01 1454.46,421.63 1447.00,400.00
             1437.17,371.50 1424.00,350.00 1424.00,350.00
             1424.00,350.00 1375.92,289.74 1368.00,212.00
             1366.76,180.05 1368.60,153.02 1372.00,131.00
             1376.80,99.96 1384.00,80.00 1384.00,80.00
             1384.00,80.00 1397.65,44.82 1386.00,22.00
             1380.21,10.66 1364.26,3.33 1345.00,3.00
             1320.18,-4.12 1264.39,5.96 1219.00,25.00
             1169.89,45.61 1132.00,75.63 1132.00,76.00
             1132.00,76.52 1126.82,80.11 1119.00,80.75
             1111.86,81.33 1102.00,79.00 1102.00,79.00
             1102.00,79.00 792.00,-36.00 560.00,33.00
             272.00,118.00 112.00,368.00 112.00,368.00
             112.00,368.00 -16.99,581.03 2.50,842.00
             6.10,925.80 68.34,1208.80 281.50,1446.50
             662.20,1871.04 1378.00,2289.50 1378.00,2289.50
             1378.00,2289.50 1385.51,2413.42 1391.50,2498.00
             1397.51,2582.92 1390.00,2663.00 1390.00,2663.00
             1390.00,2663.00 1282.89,2725.42 1126.00,2770.00
             1028.41,2797.73 910.83,2813.94 790.00,2818.00
             674.63,2821.88 540.39,2807.46 420.00,2786.00
             217.30,2749.88 50.00,2696.50 50.00,2696.50
             50.00,2696.50 9.00,2689.50 4.00,2710.00
             -13.00,2740.00 34.00,2762.00 34.00,2762.00
             34.00,2762.00 192.46,2837.99 394.00,2892.00
             508.64,2922.72 638.20,2943.95 758.00,2946.00
             898.25,2948.39 1042.78,2928.39 1162.00,2898.00
             1334.20,2854.11 1456.00,2794.00 1456.00,2794.00
             1456.00,2794.00 1476.71,2786.67 1485.67,2772.33
             1494.82,2757.68 1492.24,2736.00 1493.00,2736.00
             1493.00,2736.00 1499.51,2587.17 1496.50,2495.50
             1493.97,2418.39 1493.00,2325.00 1493.00,2325.00
             1493.00,2325.00 1499.67,2279.00 1417.00,2215.00
             1418.01,2212.42 876.61,1894.07 466.00,1450.00
             124.00,1062.50 153.89,762.58 175.00,650.00
             202.63,400.16 444.67,208.00 444.67,208.00
             444.67,208.00 566.71,99.57 740.00,78.00
             825.16,68.23 923.36,74.62 996.00,88.00
             1071.42,101.57 1123.00,122.24 1123.00,122.00
             1123.00,121.00 1150.00,116.00 1150.00,116.00
             1150.00,116.00 1171.55,91.37 1207.00,71.00
             1243.76,49.88 1294.49,33.00 1295.00,33.00
             1295.50,33.00 1325.65,22.77 1333.00,28.00
             1340.40,33.27 1320.00,69.00 1320.00,69.00
             1320.00,69.00 1315.10,80.06 1309.00,104.00
             1307.22,111.00 1308.72,119.95 1306.00,129.00
             1300.27,175.89 1306.00,212.00 1306.00,212.00
             1306.00,212.00 1308.00,266.00 1333.00,318.00
             1364.00,381.00 1393.00,450.00 1393.00,450.00
             1393.00,450.00 1387.00,497.00 1375.00,530.00
             1368.00,566.00 1371.00,603.00 1371.00,603.00
             1371.00,603.00 1358.67,612.67 1428.67,730.67
             1440.18,762.51 1461.56,796.86 1476.00,832.00
             1499.20,888.46 1524.30,971.87 1527.50,1012.50
             1529.64,1039.77 1523.56,1073.83 1510.00,1097.00
             1482.00,1155.00 1396.50,1168.50 1396.50,1168.50
             1396.50,1168.50 1325.50,1182.00 1241.00,1103.00
             1144.00,984.50 1124.00,971.50 1124.00,971.50
             1124.00,971.50 1088.00,933.00 1044.00,909.00
             1005.00,891.50 968.50,859.50 968.50,859.50
             968.50,859.50 936.73,837.56 911.50,799.00
             887.52,762.35 882.00,727.00 882.00,727.00
             882.00,727.00 880.00,688.00 892.00,651.50
             900.42,618.70 914.00,585.00 914.00,585.00
             914.00,585.00 925.75,553.75 908.75,549.00
             895.75,542.00 877.50,571.50 877.50,571.50
             877.50,571.50 816.44,667.74 825.00,748.50
             827.92,778.82 835.44,806.99 848.00,830.00
             874.17,877.95 913.00,906.50 913.00,906.50
             913.00,906.50 941.40,932.20 971.00,954.00
             985.78,964.89 1007.94,979.04 1024.00,991.50
             1030.59,996.62 1068.70,1019.58 1092.00,1044.67 Z" />
</svg>
